<svg xmlns="http://www.w3.org/2000/svg" viewBox="0 0 1024 1024">
  <defs>
    <linearGradient id="tile" x1="0" y1="0" x2="1" y2="1">
      <stop offset="0" stop-color="#F7F3EA"/>
      <stop offset=".58" stop-color="#FFFDF7"/>
      <stop offset="1" stop-color="#DCEBE2"/>
    </linearGradient>
    <linearGradient id="rightPanel" x1="0" y1="0" x2="1" y2="1">
      <stop offset="0" stop-color="#647D70"/>
      <stop offset="1" stop-color="#30463D"/>
    </linearGradient>
    <filter id="objectShadow" x="-24%" y="-16%" width="148%" height="144%">
      <feDropShadow dx="0" dy="28" stdDeviation="24" flood-color="#1E2B27" flood-opacity=".22"/>
    </filter>
  </defs>
  <rect x="22" y="22" width="980" height="980" rx="228" fill="url(#tile)"/>
  <rect x="27" y="27" width="970" height="970" rx="224" fill="none" stroke="#CFC8B8" stroke-opacity=".5" stroke-width="2"/>
  <g filter="url(#objectShadow)">
    <path d="M296 302L514 210V342L396 400V634L514 692V814L296 720Z" fill="#1E2B27"/>
    <path d="M514 210L732 326V706L514 814V692L624 634V400L514 342Z" fill="url(#rightPanel)"/>
    <path d="M396 400L514 342L624 400V634L514 692L396 634Z" fill="#F7FAF3"/>
    <path d="M514 210V342M514 692V814" stroke="#DCEBE2" stroke-opacity=".32" stroke-width="3"/>
    <path d="M444 492L514 422L596 520L536 586" fill="none" stroke="#30463D" stroke-width="38" stroke-linecap="square" stroke-linejoin="round"/>
    <path d="M732 326V706L514 814" fill="none" stroke="#FFFFFF" stroke-opacity=".2" stroke-width="5"/>
  </g>
</svg>
