<svg xmlns="http://www.w3.org/2000/svg" viewBox="0 0 880 240">
  <defs>
    <linearGradient id="bg" x1="0" y1="0" x2="1" y2="1">
      <stop offset="0" stop-color="#F7F3EA"/>
      <stop offset="1" stop-color="#DCEBE2"/>
    </linearGradient>
    <linearGradient id="rightPanel" x1="0" y1="0" x2="1" y2="1">
      <stop offset="0" stop-color="#647D70"/>
      <stop offset="1" stop-color="#30463D"/>
    </linearGradient>
  </defs>
  <rect width="880" height="240" rx="36" fill="url(#bg)"/>
  <rect x="28" y="28" width="184" height="184" rx="44" fill="#FFFDF6" stroke="#CFC8B8"/>
  <path d="M74 74L120 54V84L96 96V144L120 156V184L74 164Z" fill="#1E2B27"/>
  <path d="M120 54L166 78V160L120 184V156L144 144V96L120 84Z" fill="url(#rightPanel)"/>
  <path d="M96 96L120 84L144 96V144L120 156L96 144Z" fill="#F7FAF3"/>
  <path d="M106 116L120 102L138 123L125 136" fill="none" stroke="#30463D" stroke-width="8" stroke-linejoin="round"/>
  <text x="252" y="98" fill="#1E2B27" font-family="system-ui, sans-serif" font-size="58" font-weight="700">玄圃</text>
  <text x="254" y="147" fill="#30463D" font-family="SFMono-Regular, Menlo, monospace" font-size="25">Xuanpu Workbench</text>
  <text x="254" y="184" fill="#66766F" font-family="system-ui, sans-serif" font-size="22">AI-native field context for coding agents</text>
</svg>
